# xmcd
#
# Track frame offsets: 
#        150
#        16485
#        33982
#        52758
#        70335
#        86244
#        103643
#        116632
#        133309
#        148375
#        164642
#        178309
#        197088
#        212528
#        227714
#        245682
#        262643
#        280353
#        294504
#        308320
#        322571
#        339097
#
# Disc length: 4748 seconds
#
# Revision: 0
# Processed by: cddbd v1.5.2PL0 Copyright (c) Steve Scherf et al.
# Submitted via: ExactAudioCopy v0.99pb4
#
DISCID=40128a16
DTITLE=Various Artist - prevue promo 1095 A-3
DYEAR=2002
DGENRE=pop
TTITLE0=Remy Shand - Rocksteady
TTITLE1=Michelle Branch - Goodbye To You(Radio Remix)
TTITLE2=Michelle Branch - Goodbye To You(Album Version)
TTITLE3=Liberty X - Just A Little(Radio Edit)
TTITLE4=Cher - A Different Kind Of Love Song(Album Version)
TTITLE5=Cher - A Different Kind Of Love Song(Lenny B's  Radio Mix)
TTITLE6=Baha Men - Scooby D( Movie "Scooby Doo")
TTITLE7=Rayvon - My Bad( DJ Clue Mix)
TTITLE8=Take 6 - Takin' It To The Streets(Radio Edit)
TTITLE9=Thicke - When I Get You Alone(Radio Edit)
TTITLE10=Atomic Fireballs, The - Man With The Hex( Movie "Scooby Doo")
TTITLE11=James Mathus and His Knuckdown Society - Rock Of Ages
TTITLE12=Joe Bonamassa - Unbroken
TTITLE13=Dulcie Taylor - It Ain't Love
TTITLE14=David Baerwald - Nothing's Gonna Bring Me Down
TTITLE15=Dave Pirner - Never Recover(Lyric)
TTITLE16=Something Corporate - I Woke Up In A Car
TTITLE17=Clockwise - Lay Her Down
TTITLE18=Finch - Letters To You
TTITLE19=Goo Goo Dolls - Big Machine
TTITLE20=Scapegoat Wax - Lost Cause
TTITLE21=Def Leppard - Now(Radio Edit)
EXTD=
EXTT0=
EXTT1=
EXTT2=
EXTT3=
EXTT4=
EXTT5=
EXTT6=
EXTT7=
EXTT8=
EXTT9=
EXTT10=
EXTT11=
EXTT12=
EXTT13=
EXTT14=
EXTT15=
EXTT16=
EXTT17=
EXTT18=
EXTT19=
EXTT20=
EXTT21=
PLAYORDER=
